<?xml version="1.0" encoding="UTF-8" standalone="no"?>
<!-- Created with Inkscape (http://www.inkscape.org/) -->

<svg
   width="79.541649mm"
   height="79.541649mm"
   viewBox="0 0 79.541649 79.541649"
   version="1.1"
   id="svg1"
   xml:space="preserve"
   inkscape:export-filename="add.svg"
   inkscape:export-xdpi="96"
   inkscape:export-ydpi="96"
   xmlns:inkscape="http://www.inkscape.org/namespaces/inkscape"
   xmlns:sodipodi="http://sodipodi.sourceforge.net/DTD/sodipodi-0.dtd"
   xmlns="http://www.w3.org/2000/svg"
   xmlns:svg="http://www.w3.org/2000/svg"><sodipodi:namedview
     id="namedview1"
     pagecolor="#505050"
     bordercolor="#ffffff"
     borderopacity="1"
     inkscape:showpageshadow="0"
     inkscape:pageopacity="0"
     inkscape:pagecheckerboard="1"
     inkscape:deskcolor="#505050"
     inkscape:document-units="mm" /><defs
     id="defs1" /><g
     inkscape:label="Layer 1"
     inkscape:groupmode="layer"
     id="layer1"
     transform="translate(-65.229181,-108.64689)"><g
       id="layer1-5"
       transform="rotate(-45,104.90073,148.45891)"
       style="fill:#00ff00;fill-opacity:1"><path
         id="path1"
         style="fill:#000000;fill-opacity:1;fill-rule:evenodd;stroke-width:0.323001"
         d="m 104.99979,108.72928 a 39.77084,39.77084 0 0 0 -39.770697,39.7707 39.77084,39.77084 0 0 0 39.770697,39.7707 39.77084,39.77084 0 0 0 39.77122,-39.7707 39.77084,39.77084 0 0 0 -39.77122,-39.7707 z m 0,7.95404 a 31.816671,31.816671 0 0 1 31.81667,31.81666 31.816671,31.816671 0 0 1 -31.81667,31.81666 31.816671,31.816671 0 0 1 -31.81666,-31.81666 31.816671,31.816671 0 0 1 31.81666,-31.81666 z" /><path
         id="rect2-9"
         style="fill:#000000;fill-opacity:1;fill-rule:evenodd;stroke-width:0.323001"
         d="m 105.01611,134.43661 a 4.9731161,4.9731161 45.185653 0 1 4.95698,4.9892 v 18.14837 a 4.9892041,4.9892041 135 0 1 -4.9892,4.9892 4.9731161,4.9731161 45.185653 0 1 -4.95698,-4.9892 v -18.14837 a 4.9892041,4.9892041 135 0 1 4.9892,-4.9892 z"
         transform="matrix(0.70710678,-0.70710678,1.0700174,1.0700174,-128.14379,63.848635)" /><path
         id="rect2-9-9"
         style="fill:#000000;fill-opacity:1;fill-rule:evenodd;stroke-width:0.323001"
         d="m 105.01611,134.43661 a 4.9731161,4.9731161 45.185653 0 1 4.95698,4.9892 v 18.14837 a 4.9892041,4.9892041 135 0 1 -4.9892,4.9892 4.9731161,4.9731161 45.185653 0 1 -4.95698,-4.9892 v -18.14837 a 4.9892041,4.9892041 135 0 1 4.9892,-4.9892 z"
         transform="matrix(0.70710678,0.70710678,-1.0700174,1.0700174,189.65136,-84.643789)" /></g></g></svg>
