<?xml version="1.0" encoding="UTF-8" standalone="no"?>
<!-- Created with Inkscape (http://www.inkscape.org/) -->

<svg
   width="79.541649mm"
   height="79.541649mm"
   viewBox="0 0 79.541649 79.541649"
   version="1.1"
   id="svg1"
   xml:space="preserve"
   inkscape:export-filename="add.svg"
   inkscape:export-xdpi="96"
   inkscape:export-ydpi="96"
   xmlns:inkscape="http://www.inkscape.org/namespaces/inkscape"
   xmlns:sodipodi="http://sodipodi.sourceforge.net/DTD/sodipodi-0.dtd"
   xmlns="http://www.w3.org/2000/svg"
   xmlns:svg="http://www.w3.org/2000/svg"><sodipodi:namedview
     id="namedview1"
     pagecolor="#505050"
     bordercolor="#ffffff"
     borderopacity="1"
     inkscape:showpageshadow="0"
     inkscape:pageopacity="0"
     inkscape:pagecheckerboard="1"
     inkscape:deskcolor="#505050"
     inkscape:document-units="mm" /><defs
     id="defs1" /><g
     inkscape:label="Layer 1"
     inkscape:groupmode="layer"
     id="layer1"
     transform="translate(-63.288454,-108.44344)"><g
       id="layer1-5"
       transform="rotate(-45,103.68477,150.69984)"
       style="fill:#00ff00;fill-opacity:1"
       inkscape:label="layer1-5"><path
         id="path1"
         style="fill:#00ff00;fill-opacity:1;fill-rule:evenodd;stroke-width:0.323001"
         d="m 104.99979,108.72928 a 39.77084,39.77084 0 0 0 -39.770697,39.7707 39.77084,39.77084 0 0 0 39.770697,39.7707 39.77084,39.77084 0 0 0 39.77122,-39.7707 39.77084,39.77084 0 0 0 -39.77122,-39.7707 z m 0,7.95404 a 31.816671,31.816671 0 0 1 31.81667,31.81666 31.816671,31.816671 0 0 1 -31.81667,31.81666 31.816671,31.816671 0 0 1 -31.81666,-31.81666 31.816671,31.816671 0 0 1 31.81666,-31.81666 z" /></g><path
       id="rect2-9"
       style="fill:#00ff00;fill-opacity:1;fill-rule:evenodd;stroke-width:0.397335"
       d="m 94.954951,165.57846 a 4.9731161,7.525484 45 0 1 1.833416,-8.84365 l 19.419073,-19.41907 a 4.9892041,7.5498289 45 0 1 8.86643,-1.81063 4.9731161,7.525484 45 0 1 -1.83342,8.84364 l -19.41907,19.41907 a 4.9892041,7.5498289 45 0 1 -8.866429,1.81064 z" /><path
       id="rect2-9-9"
       style="fill:#00ff00;fill-opacity:1;fill-rule:evenodd;stroke-width:0.301763"
       d="m 101.42423,165.13201 a 4.3406191,4.9731161 45 0 1 -6.584344,0.4259 L 83.639177,154.3572 a 4.354661,4.9892041 45 0 1 0.448694,-6.6071 4.3406191,4.9731161 45 0 1 6.584315,-0.42591 l 11.200724,11.20072 a 4.354661,4.9892041 45 0 1 -0.44868,6.6071 z" /></g></svg>
