<?xml version="1.0" encoding="UTF-8" standalone="no"?>
<!-- Created with Inkscape (http://www.inkscape.org/) -->

<svg
   width="79.541916mm"
   height="79.541397mm"
   viewBox="0 0 79.541916 79.541397"
   version="1.1"
   id="svg1"
   xmlns="http://www.w3.org/2000/svg"
   xmlns:svg="http://www.w3.org/2000/svg">
  <defs
     id="defs1" />
  <g
     id="layer1"
     transform="translate(-65.229097,-108.72928)">
    <path
       id="path1"
       style="fill:#ff0000;fill-rule:evenodd;stroke-width:0.323001"
       d="m 104.99979,108.72928 a 39.77084,39.77084 0 0 0 -39.770697,39.7707 39.77084,39.77084 0 0 0 39.770697,39.7707 39.77084,39.77084 0 0 0 39.77122,-39.7707 39.77084,39.77084 0 0 0 -39.77122,-39.7707 z m 0,7.95404 a 31.816671,31.816671 0 0 1 31.81667,31.81666 31.816671,31.816671 0 0 1 -31.81667,31.81666 31.816671,31.816671 0 0 1 -31.81666,-31.81666 31.816671,31.816671 0 0 1 31.81666,-31.81666 z" />
    <path
       id="rect2-9"
       style="fill:#ff0000;fill-rule:evenodd;stroke-width:0.323001"
       d="m 105.01611,134.43661 a 4.9731161,4.9731161 45.185653 0 1 4.95698,4.9892 v 18.14837 a 4.9892041,4.9892041 135 0 1 -4.9892,4.9892 4.9731161,4.9731161 45.185653 0 1 -4.95698,-4.9892 l 0,-18.14837 a 4.9892041,4.9892041 135 0 1 4.9892,-4.9892 z"
       transform="matrix(0.70710678,-0.70710678,1.0700174,1.0700174,-128.14379,63.848635)" />
    <path
       id="rect2-9-9"
       style="fill:#ff0000;fill-rule:evenodd;stroke-width:0.323001"
       d="m 105.01611,134.43661 a 4.9731161,4.9731161 45.185653 0 1 4.95698,4.9892 v 18.14837 a 4.9892041,4.9892041 135 0 1 -4.9892,4.9892 4.9731161,4.9731161 45.185653 0 1 -4.95698,-4.9892 l 0,-18.14837 a 4.9892041,4.9892041 135 0 1 4.9892,-4.9892 z"
       transform="matrix(0.70710678,0.70710678,-1.0700174,1.0700174,189.65136,-84.643789)" />
  </g>
</svg>
